<?xml version="1.0" encoding="UTF-8" standalone="no"?>
<!-- Created with Inkscape (http://www.inkscape.org/) -->

<svg
   width="210mm"
   height="210mm"
   viewBox="0 0 210 210"
   version="1.1"
   id="svg5"
   xml:space="preserve"
   inkscape:version="1.2.2 (b0a8486541, 2022-12-01)"
   sodipodi:docname="owl.svg"
   xmlns:inkscape="http://www.inkscape.org/namespaces/inkscape"
   xmlns:sodipodi="http://sodipodi.sourceforge.net/DTD/sodipodi-0.dtd"
   xmlns="http://www.w3.org/2000/svg"
   xmlns:svg="http://www.w3.org/2000/svg"><sodipodi:namedview
     id="namedview7"
     pagecolor="#ffffff"
     bordercolor="#000000"
     borderopacity="0.25"
     inkscape:showpageshadow="2"
     inkscape:pageopacity="0.0"
     inkscape:pagecheckerboard="0"
     inkscape:deskcolor="#d1d1d1"
     inkscape:document-units="mm"
     showgrid="false"
     inkscape:zoom="0.76435185"
     inkscape:cx="72.610539"
     inkscape:cy="512.85282"
     inkscape:window-width="1920"
     inkscape:window-height="1020"
     inkscape:window-x="0"
     inkscape:window-y="32"
     inkscape:window-maximized="1"
     inkscape:current-layer="layer1" /><defs
     id="defs2" /><g
     inkscape:label="Layer 1"
     inkscape:groupmode="layer"
     id="layer1"><g
       id="g2278"><g
         id="g2269"><path
           style="fill:#600084;fill-opacity:1;stroke-width:0.0423222"
           d="m 103.94508,204.00724 c -4.643113,-15.35195 -9.181095,-29.86236 -11.076295,-35.41696 -0.835411,-2.44848 -1.418793,-3.9375 -1.578031,-4.0278 -0.02424,-0.0137 -0.262453,0.2254 -0.529353,0.53146 -4.502087,5.16264 -10.92451,8.72297 -17.996115,9.97633 -3.848048,0.68201 -7.907522,0.68204 -11.709244,0 -9.379857,-1.68258 -17.279008,-7.1827 -21.544739,-15.00146 -1.842248,-3.37669 -2.909933,-6.98728 -3.198344,-10.81582 -0.05705,-0.75743 -0.05705,-2.89091 0,-3.64835 0.217154,-2.88259 0.868406,-5.60815 1.964431,-8.22128 0.1151,-0.27442 0.202148,-0.50412 0.19344,-0.51041 -0.0086,-0.007 -0.508718,-0.26987 -1.111139,-0.58573 -9.243822,-4.84657 -16.750626,-11.687 -22.193466,-20.22327 -0.550023,-0.86263 -1.311528,-2.22197 -1.720592,-3.0714 C 11.012001,107.9391 9.2868614,100.90298 8.411493,92.460433 8.1212767,89.661413 7.8967009,86.128407 7.9038734,84.474593 l 0.0034,-0.709401 0.197279,0.689134 c 0.7617608,2.661011 1.8915632,5.713306 3.0534776,8.249331 2.941116,6.419337 6.751729,11.953173 11.6262,16.883763 0.806497,0.81578 3.137391,2.95296 3.983948,3.65287 6.981746,5.77222 15.039246,9.88374 24.421502,12.46162 l 0.627443,0.1724 -0.539066,0.36569 c -3.075373,2.0862 -5.478812,4.59285 -7.392858,7.71028 -1.792052,2.91875 -2.875731,6.14173 -3.250756,9.66813 -0.03704,0.34806 -0.05793,1.11532 -0.05738,2.10793 6.74e-4,1.67046 0.04041,2.19359 0.269533,3.56728 1.240433,7.43638 6.043997,13.83383 13.140051,17.50014 2.746835,1.41919 5.988351,2.43523 9.080185,2.84612 1.487052,0.19762 1.915056,0.22324 3.755796,0.22485 1.852149,0.002 2.323695,-0.0241 3.721224,-0.20229 7.494006,-0.95595 14.148331,-4.81848 18.330251,-10.63988 1.611734,-2.2436 2.828923,-4.7574 3.551386,-7.33452 l 0.210997,-0.75266 0.221626,0.40537 c 0.121892,0.22296 0.415691,0.78846 0.652875,1.25666 3.245226,6.40593 5.811546,13.95703 7.901153,23.2481 0.17801,0.79149 0.94849,4.27025 1.71217,7.73058 0.7637,3.46032 1.4001,6.27867 1.41423,6.263 0.0141,-0.0157 0.71692,-3.16609 1.56178,-7.0009 1.99093,-9.03681 2.22669,-10.04693 3.0562,-13.09353 1.98585,-7.29362 4.30577,-13.32364 7.15849,-18.60659 0.60951,-1.12873 1.20761,-2.17054 1.20957,-2.10687 0.004,0.13318 0.29323,1.54108 0.42322,2.06077 0.67221,2.68735 1.86347,5.29951 3.47802,7.62656 2.01127,2.89883 4.61186,5.31897 7.74299,7.20574 3.13893,1.89146 6.76292,3.16744 10.49414,3.69489 1.27416,0.18012 1.99347,0.23266 3.4971,0.25548 1.90835,0.029 3.12477,-0.0496 4.83354,-0.31223 9.68727,-1.48886 17.63146,-7.77815 20.69121,-16.38093 0.59406,-1.67025 0.96008,-3.23855 1.18174,-5.06344 0.0958,-0.78834 0.13581,-3.13741 0.0677,-3.97297 -0.26425,-3.24375 -1.11211,-6.15168 -2.62997,-9.02001 -1.93708,-3.66055 -4.82514,-6.7909 -8.4088,-9.1142 l -0.62893,-0.40774 1.49056,-0.45323 c 2.20003,-0.66897 3.96955,-1.28972 5.97543,-2.0962 8.43711,-3.3922 15.77834,-8.3574 21.71676,-14.688 6.16766,-6.575 10.89421,-14.90332 13.43235,-23.66814 0.13559,-0.468206 0.256,-0.869524 0.2676,-0.891818 0.0396,-0.07639 -0.0231,2.431598 -0.0898,3.587541 -0.50052,8.667522 -1.92016,16.473157 -4.05131,22.275217 -1.26727,3.45016 -2.67666,6.00457 -5.24495,9.50597 -4.94235,6.73802 -11.40901,12.37533 -18.93495,16.50653 -0.48812,0.26795 -0.92991,0.51162 -0.98174,0.5415 -0.0939,0.0541 -0.093,0.0572 0.19027,0.69495 1.60339,3.61057 2.3895,7.70184 2.22273,11.56792 -0.18328,4.24851 -1.26033,8.01997 -3.37387,11.81412 -4.17124,7.4881 -11.7047,12.8279 -20.64013,14.62995 -2.49,0.50218 -5.24322,0.7266 -7.75639,0.63225 -5.65458,-0.21227 -10.9363,-1.75245 -15.64428,-4.56196 -3.04173,-1.81518 -5.85168,-4.2733 -7.99166,-6.99108 -0.20189,-0.2564 -0.38222,-0.48163 -0.40075,-0.50051 -0.0497,-0.0506 -0.31486,0.41306 -0.54824,0.95877 -0.93329,2.18234 -3.37376,9.49131 -7.02756,21.04674 -1.16677,3.69005 -4.39696,14.06764 -5.52662,17.75531 -0.43028,1.40461 -0.79484,2.56685 -0.81015,2.58273 -0.0153,0.0158 -0.28276,-0.81409 -0.59438,-1.84444 z m 0.37513,-30.32182 c -3.56569,-15.2646 -8.947196,-26.85117 -16.144392,-34.75941 -1.880922,-2.06674 -4.160428,-4.12122 -6.375135,-5.74579 -4.12556,-3.02623 -8.884713,-5.31269 -14.448159,-6.94142 -2.379313,-0.69654 -4.670141,-1.22486 -8.06391,-1.85971 -2.067794,-0.3868 -2.752775,-0.5272 -4.241842,-0.86941 -7.21163,-1.65736 -13.712509,-4.25707 -19.477181,-7.78894 -6.741134,-4.13015 -12.421657,-9.56001 -16.785343,-16.044683 -3.573962,-5.311079 -6.333223,-11.447022 -7.849944,-17.456386 -0.331091,-1.311808 -0.704365,-3.077467 -0.637377,-3.014918 0.01191,0.01115 0.216736,0.312138 0.455099,0.668868 2.936933,4.395275 7.115822,8.748941 11.872724,12.369296 5.018341,3.819328 10.84315,6.912275 17.086526,9.072863 6.243982,2.16079 13.277979,3.48785 20.3064,3.83107 0.461745,0.0225 1.017918,0.0513 1.235947,0.064 0.218036,0.0127 1.699364,0.0397 3.291847,0.0599 3.467344,0.0442 4.656913,0.0966 6.916336,0.30452 9.355274,0.86106 16.778116,3.58682 22.556858,8.28316 0.58873,0.47846 1.986447,1.75475 2.580986,2.35674 3.020874,3.05882 5.56416,6.85283 7.60794,11.34935 0.28477,0.62652 0.32678,0.69676 0.36364,0.60806 0.11208,-0.26963 0.87192,-1.87144 1.1341,-2.39063 2.16652,-4.29031 4.85792,-7.90669 8.03477,-10.79614 3.22158,-2.93016 7.02047,-5.18132 11.45145,-6.78602 4.10461,-1.48649 8.79866,-2.40455 14.13966,-2.76546 1.43985,-0.0973 2.40792,-0.12831 5.12556,-0.16423 3.55068,-0.047 4.75516,-0.0977 7.25502,-0.30612 13.16612,-1.0974 24.94509,-5.377903 34.45639,-12.521502 4.86421,-3.653333 9.23088,-8.180577 12.16032,-12.607526 0.2501,-0.377955 0.45464,-0.660699 0.45453,-0.628327 -5e-4,0.09516 -0.256,1.341269 -0.42377,2.065457 -0.72559,3.131922 -1.95483,6.749883 -3.35137,9.863973 -3.75416,8.371204 -9.27711,15.467275 -16.35154,21.009005 -5.84836,4.58127 -13.00842,8.14646 -20.87093,10.39218 -2.61267,0.74625 -4.632,1.21081 -7.93797,1.82621 -3.34419,0.62249 -5.67265,1.15815 -8.10811,1.86527 -5.20923,1.51245 -9.87241,3.69735 -13.82402,6.47713 -2.89956,2.03971 -5.71754,4.62379 -8.07635,7.40602 -4.09986,4.83577 -7.46038,10.69095 -10.37789,18.08185 -1.72596,4.37235 -3.49641,10.1789 -4.7085,15.44244 -0.10272,0.4459 -0.19891,0.82375 -0.21382,0.83966 -0.015,0.0158 -0.11331,-0.33982 -0.21855,-0.79048 z m 49.36197,-46.96159 c -102.454787,-84.482553 -51.22739,-42.241277 0,0 z"
           id="path248"
           sodipodi:nodetypes="cscsscsscsccsssccssscscsssccssccsscscsssssscsssssssscsscssssccsssscssssssssssccccssssssssccsscsccscssssssccsscssssssssssccccc" /><circle
           style="fill:#600084;fill-opacity:1;stroke-width:2.083"
           id="path1810"
           cx="104.48347"
           cy="35.448414"
           r="18.512871" /></g><g
         id="g2265"><path
           style="fill:#aa0000;stroke-width:0.208898"
           d="M 100.17797,97.427533 C 76.517258,96.848417 54.627763,97.228275 37.075903,91.21959 26.481907,87.592861 19.498716,79.933053 14.69014,75.619027 l -2.514342,-2.255754 92.436952,-0.0062 92.43698,-0.0062 -0.65214,0.755388 c -2.08103,2.410565 -10.26352,10.901181 -15.30712,13.403345 -16.13089,8.002623 -40.25732,8.301076 -65.78331,9.974186 -3.18473,0.20875 -10.04273,21.445028 -11.25967,21.375498 -0.35986,-0.0206 -10.30806,-21.677754 -11.447612,-21.705637 z M 6.1451667,62.011046 C 4.458286,58.597922 4.4549806,54.27255 6.1369001,51.215777 6.9631405,49.714167 9.8240682,46.703573 11.03066,46.066016 11.540525,45.796605 17.551868,42.853784 24.389212,39.52641 31.226558,36.199037 40.59928,31.631677 45.217484,29.376723 83.672076,10.600305 86.07929,9.4640808 89.777818,8.3439097 96.800951,6.2168235 104.93214,5.5859703 111.95519,6.6232794 c 2.82668,0.417504 7.59082,1.6157335 9.70532,2.4409848 3.24868,1.2679098 11.98696,5.4683958 50.48947,24.2702528 26.52253,12.951688 27.13294,13.269628 28.89089,15.048024 1.45575,1.472674 2.8016,3.890445 3.18507,5.721807 0.54434,2.599851 -0.0558,6.159898 -1.46533,8.691664 l -0.30634,0.550242 H 104.62968 6.8050634 Z M 107.10481,58.646367 c 7.57638,-0.470734 14.74789,-4.018529 18.87482,-9.3375 1.97835,-2.549797 3.80268,-6.559076 4.53804,-9.973173 0.16669,-0.77394 0.27589,-2.718426 0.26966,-4.802113 -0.01,-3.09999 -0.0743,-3.721476 -0.56667,-5.419401 -2.64476,-9.11928 -9.52555,-15.479597 -19.29324,-17.83388 -2.33787,-0.563496 -2.88701,-0.620978 -6.06037,-0.634363 -3.91628,-0.01648 -5.695792,0.244189 -9.415573,1.379417 -9.021305,2.753174 -14.340588,8.429437 -16.463501,17.568374 -0.625465,2.692585 -0.679812,7.261455 -0.115343,9.697608 2.50093,10.79368 11.459505,18.136887 23.813457,19.519526 0.35985,0.04027 1.09593,0.04492 1.63572,0.01037 0.53979,-0.03459 1.79214,-0.113264 2.783,-0.174828 z"
           id="path351"
           sodipodi:nodetypes="csscccssscccsssssssssssscccscssccscssssccc" /><path
           d="m 142.35668,167.30606 c -4.56716,-0.29107 -8.76997,-1.72433 -12.41655,-4.23431 -0.92733,-0.63829 -1.55943,-1.14379 -2.43134,-1.94435 -3.4742,-3.18993 -5.76212,-7.38479 -6.46786,-11.85872 -0.17825,-1.13014 -0.20307,-1.49668 -0.20307,-2.99975 v -1.47962 l 0.39501,-0.50671 c 5.17008,-6.63222 11.17832,-10.99145 18.94524,-13.74559 3.15018,-1.11704 5.92242,-1.82041 10.68401,-2.71074 0.95994,-0.1795 2.03153,-0.38796 2.38132,-0.46324 l 0.83952,-0.0546 c 0.33541,0.13563 1.41857,0.69064 2.00055,1.02509 2.1821,1.25395 4.09733,2.82189 5.71459,4.67831 2.16537,2.48557 3.7378,5.48718 4.48154,8.55477 1.15374,4.75869 0.52047,9.65074 -1.81007,13.98285 -1.16854,2.17211 -2.51238,3.89338 -4.37078,5.59832 -1.8531,1.70009 -3.65763,2.89108 -6.01171,3.96776 -2.56425,1.17279 -5.20464,1.86859 -8.08784,2.13133 -0.83413,0.0761 -2.86171,0.10896 -3.64256,0.0592 z"
           style="fill:#aa0000;fill-opacity:1;stroke-width:0.0423222"
           id="path1828" /><path
           d="m 65.991974,167.68677 c 4.576404,0.0137 8.865324,-1.13654 12.670945,-3.39813 0.967774,-0.57512 1.632131,-1.0374 2.555413,-1.77813 3.678899,-2.95151 6.241067,-6.98471 7.24315,-11.40172 0.253108,-1.11577 0.302279,-1.47983 0.402365,-2.97957 l 0.09853,-1.47634 -0.360393,-0.53189 c -4.716982,-6.96175 -10.421616,-11.71138 -17.987906,-14.9766 -3.068807,-1.32433 -5.788058,-2.21073 -10.479796,-3.41614 -0.945856,-0.24303 -2.001187,-0.52238 -2.345188,-0.62079 l -0.834021,-0.11038 c -0.343697,0.113 -1.46141,0.59465 -2.064368,0.8896 -2.260755,1.10587 -4.27614,2.5428 -6.013425,4.28741 -2.326073,2.33587 -4.094883,5.22611 -5.041236,8.23737 -1.46805,4.6713 -1.161935,9.59466 0.874967,14.07234 1.021311,2.2451 2.247553,4.05203 3.9883,5.87694 1.735782,1.81971 3.457002,3.12821 5.734164,4.35926 2.480465,1.34093 5.068663,2.211 7.927969,2.66515 0.827211,0.13147 2.848103,0.29927 3.630534,0.30162 z"
           style="fill:#aa0000;fill-opacity:1;stroke-width:0.0423222"
           id="path1828-6" /></g></g></g></svg>
